<svg width="600" height="308" viewBox="0 0 600 308" fill="none" xmlns="http://www.w3.org/2000/svg">
<path d="M128.651 21.9319H113.061V0H151.635V145.368H128.651V21.9319Z" fill="#2C2222"/>
<path d="M279.442 115.907L332.1 65.4028L332.051 59.7238H279.442V37.8796H360.622V67.9986L307.942 118.187V123.798H361.005V145.34H279.442V115.907Z" fill="#2C2222"/>
<path d="M220.686 39.9425C218.353 39.9425 217.683 39.9671 216.566 40.1065L247.193 0.132858H219.249L175.218 59.0194C167.18 70.3092 163.214 80.4415 163.214 94.4209C163.214 124.078 186.157 147.731 218.102 147.731C248.986 147.731 272.784 125.375 272.784 94.4209C272.784 63.4667 249 39.9425 220.688 39.9425H220.686ZM217.974 126.653C200.178 126.653 186.651 111.825 186.651 93.9813C186.651 76.1376 200.28 61.3225 218.074 61.3225C235.663 61.3225 249.539 76.1391 249.539 93.9813C249.539 111.823 235.563 126.653 217.974 126.653Z" fill="#2C2222"/>
<path d="M483 247.403V269.26H435.881V183.552H420.37V161.678H435.881V123.803H459.043V161.678H482.585V183.552H459.043V247.403H483V247.403Z" fill="#2C2222"/>
<path d="M547.727 159.442C547.276 159.411 546.823 159.391 546.363 159.391C546.041 159.382 545.731 159.382 545.419 159.372C545.2 159.361 544.987 159.361 544.767 159.361H544.436C528.358 159.452 513.919 165.991 503.885 177.01C503.374 177.573 502.861 178.158 502.379 178.74C502.097 179.083 501.818 179.425 501.545 179.777C494.231 188.995 489.784 200.877 489.554 214.481C489.534 214.864 489.534 215.245 489.534 215.638V215.859C489.644 248.72 514.06 271.672 544.274 271.913C544.436 271.923 544.607 271.923 544.767 271.923C545.168 271.923 545.579 271.923 545.982 271.903C546.112 271.913 546.231 271.903 546.363 271.893C576.126 271.129 600 248.682 600 215.64C600 183.653 576.848 160.884 547.727 159.446V159.442H547.727ZM545.25 248.789C527.296 248.789 512.696 234.433 512.244 216.532C512.234 216.249 512.234 215.96 512.234 215.677C512.234 214.821 512.266 213.966 512.335 213.132C512.376 212.57 512.425 212.015 512.495 211.463C512.505 211.431 512.505 211.401 512.505 211.371C514.613 195.121 528.471 182.575 545.248 182.575C563.491 182.575 578.272 197.397 578.272 215.679C578.272 233.961 563.491 248.791 545.248 248.791L545.25 248.789Z" fill="#2C2222"/>
<path d="M128.486 161.689H183.114V183.61H151.634V269.142H128.487V161.689H128.486Z" fill="#2C2222"/>
<path d="M302.235 161.685L252.952 307.143H206.594V285.092H236.055L241.441 269.137H226.567L223.833 261.263L220.907 252.828L189.355 161.685H214.55L243.656 243.573H249.097L278.626 161.685H302.235Z" fill="#2C2222"/>
<path d="M89.5992 37.8956V46.0431C89.5852 46.0296 89.5716 46.0156 89.5576 46.0156H83.9668C77.8151 39.2487 67.2341 35.6256 58.7577 34.9558C58.6755 34.9558 58.5802 34.9423 58.498 34.9423C56.967 34.8741 55.4771 34.8606 54.0548 34.8606C25.7701 34.8606 0 57.2121 0 91.5804C0 125.731 26.6308 147.426 53.8217 147.426C56.009 147.426 58.0463 147.398 59.9604 147.303H60.015C69.9814 146.25 77.3904 143.762 83.9663 136.544H89.5846V136.572C89.5846 136.558 89.5987 136.558 89.5987 136.558V145.266H112.525V37.8956H89.5992ZM55.7092 124.295C37.7587 124.295 23.1587 109.927 22.7075 92.0321C22.6939 91.7449 22.6939 91.4581 22.6939 91.1708C22.6939 90.3231 22.7346 89.4618 22.8032 88.6281C22.8438 88.0676 22.8845 87.5212 22.9536 86.9602C22.9672 86.9326 22.9672 86.9056 22.9672 86.865C25.0727 70.6241 38.9349 58.0739 55.7092 58.0739C73.9599 58.0739 88.7374 72.8931 88.7374 91.1708C88.7374 109.462 73.9599 124.295 55.7092 124.295Z" fill="#2C2222"/>
<path d="M366.721 159.375H366.584C355.51 159.402 342.796 163.599 336.262 170.79H330.643V161.658H307.854V307.142H330.766V260.894H336.385C342.907 268.071 355.784 272.009 366.83 272.063C394.896 271.79 420.365 249.506 420.365 215.343C420.364 181.398 393.761 159.621 366.721 159.375ZM397.576 218.296C397.535 218.857 397.48 219.417 397.411 219.964C397.398 220.005 397.398 220.032 397.398 220.06C395.292 236.314 381.43 248.85 364.656 248.85C346.419 248.85 331.627 234.031 331.627 215.753C331.627 197.476 346.419 182.642 364.656 182.642C382.605 182.642 397.206 196.997 397.657 214.892C397.671 215.179 397.671 215.466 397.671 215.753C397.671 216.614 397.643 217.462 397.576 218.296Z" fill="#2C2222"/>
<path d="M113.589 225.803C110.035 246.814 95.4345 262.728 75.8989 268.784C70.7308 270.52 65.2077 271.518 59.4525 271.668C59.3161 271.668 59.2068 271.682 59.0835 271.668C58.6734 271.696 58.2774 271.696 57.8808 271.696C57.7164 271.696 57.553 271.696 57.4021 271.682C50.4026 271.628 43.7455 270.301 37.6208 267.909C16.3622 260.143 1.76208 240.294 1.76208 215.29C1.76208 186.786 21.8852 164.202 48.6254 159.882L48.9126 159.841C49.5553 159.732 50.2251 159.65 50.8678 159.582C51.2227 159.527 51.5787 159.485 51.9477 159.445C52.4124 159.39 52.8906 159.362 53.3554 159.321C53.8747 159.281 54.3676 159.24 54.8734 159.213C55.3511 159.185 55.8164 159.185 56.3087 159.171C56.7188 159.157 57.1424 159.13 57.553 159.13H57.9901C87.273 159.13 108.887 177.367 113.534 203.984H88.8587C84.2921 191.352 72.3716 182.343 58.3456 182.343C41.8309 182.343 28.1734 194.893 26.1094 211.134C26.1094 211.175 26.1094 211.202 26.0954 211.229C26.0272 211.79 25.9861 212.337 25.945 212.897C25.8768 213.731 25.8357 214.592 25.8357 215.44C25.8357 215.727 25.8357 216.014 25.8492 216.301C26.1094 226.445 30.8254 235.454 38.0981 241.346C43.8814 245.721 51.0718 248.21 58.6183 248.21C62.1456 248.21 65.4944 247.744 68.6393 246.856C78.3589 243.561 86.0558 235.715 89.2552 225.803H113.589V225.803Z" fill="#2C2222"/>
</svg>
