<?xml version="1.0" encoding="utf-8"?>
<!-- Generator: Adobe Illustrator 25.3.1, SVG Export Plug-In . SVG Version: 6.00 Build 0)  -->
<svg version="1.1" id="a" xmlns="http://www.w3.org/2000/svg" xmlns:xlink="http://www.w3.org/1999/xlink" x="0px" y="0px"
	 viewBox="0 0 237.7 101.4" style="enable-background:new 0 0 237.7 101.4;" xml:space="preserve">
<style type="text/css">
	.st0{fill:#5E489D;}
	.st1{fill:#FFFFFF;}
	.st2{fill:#40474F;}
</style>
<g>
	<path class="st0" d="M20.3,0C9.1,0,0,9.1,0,20.3v60.8c0,11.1,9.1,20.3,20.3,20.3h63.5c11.1,0,20.3-9.1,20.3-20.3V0H20.3z"/>
	<path class="st1" d="M80.6,86.6l11.8-14.2h0v-4.8H74.2v4.8h11.8L74.2,86.6l0,0v4.8h18.2v-4.8H80.6L80.6,86.6z M30.9,69.1
		c-2.1-1.5-4.6-2.4-7.4-2.4c-7.5,0-13.4,6.4-12.6,14.1c0.6,5.9,5.4,10.6,11.3,11.2c3.3,0.3,6.3-0.6,8.7-2.3v1.8h5.3v-24h-5.3V69.1
		L30.9,69.1z M30.9,79.4c0,4.6-4.2,8.2-9,7.2c-2.8-0.6-5.1-2.8-5.6-5.7c-1-4.8,2.6-9,7.2-9c4.1,0,7.4,3.3,7.4,7.4L30.9,79.4
		L30.9,79.4z M60.9,67.8c-0.4,0-0.9,0-1.3,0l6.9-8.9h-6.3L50.4,72c-2,2.6-3,5.4-2.9,8.2c0.1,3.3,1.5,6.3,3.8,8.5
		c2.3,2.1,5.3,3.3,8.5,3.3c0.1,0,0.2,0,0.4,0c6.9-0.2,12.2-5.7,12.1-12.5C72,73.3,67.1,68.2,60.9,67.8L60.9,67.8z M60.1,87.2
		c-1.9,0.1-3.6-0.6-4.9-1.8c-1.4-1.3-2.2-3.2-2.3-5.2c-0.1-2.1,0.6-4,1.9-5.4c1.2-1.3,2.9-2.1,4.7-2.1l0,0c0.1,0,0.2,0,0.3,0
		c1.7,0,3.4,0.6,4.6,1.8c1.4,1.3,2.3,3.2,2.3,5.2C67,83.7,64.1,87.1,60.1,87.2L60.1,87.2z M36.3,63.7h3.4v27.7H45V58.9h-8.8
		C36.3,58.9,36.3,63.7,36.3,63.7z"/>
	<g>
		<path class="st2" d="M111.1,79.7c0-7,5.3-12.3,12.4-12.3c4.6,0,8.6,2.4,10.3,6.2l-2.5,1.5c-1.3-2.8-4.2-4.6-7.8-4.6
			c-5.2,0-9.3,4.1-9.3,9.3s4,9.3,9.3,9.3c3.6,0,6.4-1.9,7.9-4.6l2.6,1.5C132,89.6,128,92,123.4,92C116.3,92,111.1,86.7,111.1,79.7
			L111.1,79.7z"/>
		<path class="st2" d="M147.2,67.6v3c-3.8,0-7.4,2-7.4,7.8v13.1h-3.1V68h3.1v3.9C141.4,68.6,144.2,67.6,147.2,67.6L147.2,67.6z"/>
		<path class="st2" d="M171.7,68l-10.1,25.7c-1.8,4.5-5.3,7.6-9.5,7.2V98c3.1,0.3,5.2-1.8,6.4-4.9l0.6-1.5L148.7,68h3.3l8.8,19.7
			l7.6-19.7H171.7L171.7,68z"/>
		<path class="st2" d="M198.3,79.7c0,7-5.5,12.3-12.1,12.3c-4.2,0-7.5-2-9.5-5.2v14h-3.1V68h3.1v4.6c2-3.2,5.3-5.2,9.5-5.2
			C192.8,67.4,198.3,72.8,198.3,79.7z M195.2,79.7c0-5.2-4-9.3-9.3-9.3s-9.3,4.1-9.3,9.3s4,9.3,9.3,9.3S195.2,84.9,195.2,79.7z"/>
		<path class="st2" d="M205.7,71v14.2c0,4,2.2,3.7,6.8,3.5v2.7c-6.3,0.9-9.9-0.6-9.9-6.2V71h-4.9v-3h4.9v-5.6l3.1-0.9V68h6.8v3
			H205.7L205.7,71z"/>
		<path class="st2" d="M213,79.7c0-7,5.5-12.3,12.4-12.3s12.4,5.4,12.4,12.3S232.2,92,225.4,92S213,86.7,213,79.7L213,79.7z
			 M234.6,79.7c0-5.2-4-9.3-9.3-9.3s-9.3,4.1-9.3,9.3s4,9.3,9.3,9.3S234.6,84.9,234.6,79.7z"/>
	</g>
</g>
</svg>
